<svg width="30" height="20" viewBox="0 0 30 20" fill="none" xmlns="http://www.w3.org/2000/svg">
<g clip-path="url(#clip0_4340_150254)">
<rect width="30" height="20" rx="4" fill="#FF4E4E"/>
<path d="M0 4C0 1.79086 1.79086 0 4 0H26C28.2091 0 30 1.79086 30 4V16C30 18.2091 28.2091 20 26 20H4C1.79086 20 0 18.2091 0 16V4Z" fill="white"/>
<path d="M26 19V20H4V19H26ZM29 16V4C29 2.34315 27.6568 1 26 1H4C2.34315 1 1 2.34315 1 4V16C1 17.6568 2.34315 19 4 19V20L3.79394 19.9951C1.7488 19.8913 0.108653 18.2512 0.00488281 16.2061L0 16V4C2.57702e-07 1.79086 1.79086 0 4 0H26L26.2061 0.00488281C28.3194 0.112116 30 1.85996 30 4V16L29.9951 16.2061C29.8913 18.2512 28.2512 19.8913 26.2061 19.9951L26 20V19C27.6568 19 29 17.6568 29 16Z" fill="#DFE3E5"/>
<path d="M0 0H30V6.66667H0V0Z" fill="#F15B25"/>
<path d="M0 13.3335H30V20.0002H0V13.3335Z" fill="#006934"/>
<path d="M14.9998 13.0832C16.7027 13.0832 18.0832 11.7027 18.0832 9.99984C18.0832 8.29696 16.7027 6.9165 14.9998 6.9165C13.297 6.9165 11.9165 8.29696 11.9165 9.99984C11.9165 11.7027 13.297 13.0832 14.9998 13.0832Z" fill="#2C2C6F"/>
<path d="M15.0007 12.6663C16.4734 12.6663 17.6673 11.4724 17.6673 9.99967C17.6673 8.52691 16.4734 7.33301 15.0007 7.33301C13.5279 7.33301 12.334 8.52691 12.334 9.99967C12.334 11.4724 13.5279 12.6663 15.0007 12.6663Z" fill="white"/>
<path d="M14.9994 10.5335C15.2939 10.5335 15.5327 10.2947 15.5327 10.0001C15.5327 9.70558 15.2939 9.4668 14.9994 9.4668C14.7048 9.4668 14.4661 9.70558 14.4661 10.0001C14.4661 10.2947 14.7048 10.5335 14.9994 10.5335Z" fill="#2C2C6F"/>
<path d="M15.0006 7.33252L15.1006 8.93722L15.0006 9.73174L14.9006 8.93722L15.0006 7.33252Z" fill="#2C2C6F"/>
<path d="M15.3333 7.47117C15.3971 7.47958 15.4557 7.43462 15.4642 7.37073C15.4726 7.30685 15.4276 7.24825 15.3637 7.23984C15.2998 7.23143 15.2412 7.2764 15.2328 7.34028C15.2244 7.40416 15.2694 7.46276 15.3333 7.47117Z" fill="#2C2C6F"/>
<path d="M15.0001 12.6655L14.9001 11.0608L15.0001 10.2663L15.1001 11.0608L15.0001 12.6655Z" fill="#2C2C6F"/>
<path d="M14.6675 12.5269C14.6036 12.5185 14.545 12.5634 14.5366 12.6273C14.5282 12.6912 14.5731 12.7498 14.637 12.7582C14.7009 12.7666 14.7595 12.7217 14.7679 12.6578C14.7763 12.5939 14.7314 12.5353 14.6675 12.5269Z" fill="#2C2C6F"/>
<path d="M15.6903 7.42383L15.3716 8.99973L15.0694 9.7413L15.1784 8.94797L15.6903 7.42383Z" fill="#2C2C6F"/>
<path d="M15.976 7.64352C16.0355 7.66818 16.1038 7.63991 16.1284 7.58038C16.1531 7.52085 16.1248 7.4526 16.0653 7.42795C16.0058 7.40329 15.9375 7.43156 15.9129 7.49109C15.8882 7.55062 15.9165 7.61886 15.976 7.64352Z" fill="#2C2C6F"/>
<path d="M14.3104 12.5747L14.6291 10.9988L14.9314 10.2572L14.8223 11.0506L14.3104 12.5747Z" fill="#2C2C6F"/>
<path d="M14.0247 12.355C13.9652 12.3304 13.8969 12.3586 13.8723 12.4182C13.8476 12.4777 13.8759 12.5459 13.9354 12.5706C13.995 12.5952 14.0632 12.567 14.0879 12.5074C14.1125 12.4479 14.0842 12.3797 14.0247 12.355Z" fill="#2C2C6F"/>
<path d="M16.3325 7.69062L15.6167 9.13033L15.1328 9.76841L15.4435 9.03033L16.3325 7.69062Z" fill="#2C2C6F"/>
<path d="M16.5521 7.97684C16.6032 8.01607 16.6764 8.00642 16.7157 7.95531C16.7549 7.90419 16.7452 7.83095 16.6941 7.79173C16.643 7.7525 16.5698 7.76214 16.5305 7.81326C16.4913 7.86438 16.501 7.93762 16.5521 7.97684Z" fill="#2C2C6F"/>
<path d="M13.6666 12.3094L14.3823 10.8697L14.8662 10.2316L14.5555 10.9697L13.6666 12.3094Z" fill="#2C2C6F"/>
<path d="M13.4479 12.0227C13.3968 11.9834 13.3236 11.9931 13.2843 12.0442C13.2451 12.0953 13.2548 12.1686 13.3059 12.2078C13.357 12.247 13.4302 12.2374 13.4695 12.1863C13.5087 12.1351 13.499 12.0619 13.4479 12.0227Z" fill="#2C2C6F"/>
<path d="M16.8847 8.11417L15.8207 9.31957L15.1882 9.81067L15.6793 9.17815L16.8847 8.11417Z" fill="#2C2C6F"/>
<path d="M17.0221 8.447C17.0614 8.49812 17.1346 8.50776 17.1857 8.46854C17.2368 8.42932 17.2465 8.35608 17.2073 8.30496C17.168 8.25384 17.0948 8.2442 17.0437 8.28342C16.9926 8.32265 16.9829 8.39589 17.0221 8.447Z" fill="#2C2C6F"/>
<path d="M13.1143 11.8858L14.1783 10.6804L14.8108 10.1893L14.3198 10.8219L13.1143 11.8858Z" fill="#2C2C6F"/>
<path d="M12.9769 11.553C12.9377 11.5019 12.8644 11.4922 12.8133 11.5315C12.7622 11.5707 12.7525 11.6439 12.7918 11.695C12.831 11.7462 12.9042 11.7558 12.9554 11.7166C13.0065 11.6774 13.0161 11.6041 12.9769 11.553Z" fill="#2C2C6F"/>
<path d="M17.31 8.66619L15.9703 9.55514L15.2322 9.8658L15.8703 9.38194L17.31 8.66619Z" fill="#2C2C6F"/>
<path d="M17.3569 9.02374C17.3816 9.08327 17.4498 9.11154 17.5093 9.08688C17.5689 9.06222 17.5971 8.99397 17.5725 8.93445C17.5478 8.87492 17.4796 8.84665 17.42 8.87131C17.3605 8.89596 17.3322 8.96421 17.3569 9.02374Z" fill="#2C2C6F"/>
<path d="M12.6907 11.3328L14.0304 10.4439L14.7685 10.1332L14.1304 10.6171L12.6907 11.3328Z" fill="#2C2C6F"/>
<path d="M12.6441 10.9753C12.6194 10.9158 12.5512 10.8875 12.4916 10.9121C12.4321 10.9368 12.4038 11.005 12.4285 11.0646C12.4532 11.1241 12.5214 11.1524 12.5809 11.1277C12.6405 11.1031 12.6687 11.0348 12.6441 10.9753Z" fill="#2C2C6F"/>
<path d="M17.5767 9.30899L16.0525 9.82091L15.2592 9.92996L16.0008 9.62773L17.5767 9.30899Z" fill="#2C2C6F"/>
<path d="M17.5293 9.66614C17.5377 9.73003 17.5963 9.77499 17.6601 9.76658C17.724 9.75817 17.769 9.69957 17.7606 9.63569C17.7522 9.57181 17.6936 9.52684 17.6297 9.53525C17.5658 9.54366 17.5208 9.60226 17.5293 9.66614Z" fill="#2C2C6F"/>
<path d="M12.4241 10.6895L13.9482 10.1776L14.7415 10.0686L14 10.3708L12.4241 10.6895Z" fill="#2C2C6F"/>
<path d="M12.4717 10.3319C12.4633 10.268 12.4047 10.2231 12.3408 10.2315C12.2769 10.2399 12.232 10.2985 12.2404 10.3624C12.2488 10.4262 12.3074 10.4712 12.3713 10.4628C12.4352 10.4544 12.4801 10.3958 12.4717 10.3319Z" fill="#2C2C6F"/>
<path d="M17.6658 9.9999L16.0611 10.0999L15.2666 9.9999L16.0611 9.8999L17.6658 9.9999Z" fill="#2C2C6F"/>
<path d="M17.5274 10.3328C17.519 10.3967 17.5639 10.4553 17.6278 10.4637C17.6917 10.4721 17.7503 10.4271 17.7587 10.3632C17.7671 10.2993 17.7221 10.2407 17.6583 10.2323C17.5944 10.2239 17.5358 10.2689 17.5274 10.3328Z" fill="#2C2C6F"/>
<path d="M12.3333 10.0001L13.9379 9.9001L14.7325 10.0001L13.9379 10.1001L12.3333 10.0001Z" fill="#2C2C6F"/>
<path d="M12.4717 9.66723C12.4801 9.60335 12.4351 9.54474 12.3712 9.53633C12.3073 9.52792 12.2487 9.57289 12.2403 9.63677C12.2319 9.70065 12.2769 9.75926 12.3408 9.76767C12.4046 9.77608 12.4633 9.73111 12.4717 9.66723Z" fill="#2C2C6F"/>
<path d="M17.5742 10.6903L15.9983 10.3716L15.2568 10.0694L16.0501 10.1784L17.5742 10.6903Z" fill="#2C2C6F"/>
<path d="M17.3545 10.976C17.3299 11.0355 17.3581 11.1038 17.4177 11.1284C17.4772 11.1531 17.5454 11.1248 17.5701 11.0653C17.5948 11.0058 17.5665 10.9375 17.507 10.9129C17.4474 10.8882 17.3792 10.9165 17.3545 10.976Z" fill="#2C2C6F"/>
<path d="M12.4236 9.30917L13.9995 9.6279L14.7411 9.93013L13.9477 9.82109L12.4236 9.30917Z" fill="#2C2C6F"/>
<path d="M12.6443 9.0235C12.6689 8.96397 12.6406 8.89572 12.5811 8.87107C12.5216 8.84641 12.4533 8.87468 12.4287 8.93421C12.404 8.99373 12.4323 9.06198 12.4918 9.08664C12.5513 9.1113 12.6196 9.08303 12.6443 9.0235Z" fill="#2C2C6F"/>
<path d="M17.3089 11.3332L15.8692 10.6174L15.2311 10.1336L15.9692 10.4442L17.3089 11.3332Z" fill="#2C2C6F"/>
<path d="M17.0222 11.5521C16.983 11.6032 16.9926 11.6764 17.0437 11.7157C17.0948 11.7549 17.1681 11.7452 17.2073 11.6941C17.2465 11.643 17.2369 11.5698 17.1858 11.5305C17.1346 11.4913 17.0614 11.501 17.0222 11.5521Z" fill="#2C2C6F"/>
<path d="M12.6894 8.66633L14.1291 9.38207L14.7672 9.86594L14.0291 9.55528L12.6894 8.66633Z" fill="#2C2C6F"/>
<path d="M12.9761 8.44744C13.0153 8.39632 13.0057 8.32308 12.9546 8.28386C12.9035 8.24463 12.8302 8.25427 12.791 8.30539C12.7518 8.35651 12.7614 8.42975 12.8125 8.46897C12.8636 8.5082 12.9369 8.49855 12.9761 8.44744Z" fill="#2C2C6F"/>
<path d="M16.8849 11.8857L15.6795 10.8217L15.1884 10.1892L15.8209 10.6802L16.8849 11.8857Z" fill="#2C2C6F"/>
<path d="M16.5518 12.0231C16.5007 12.0623 16.491 12.1356 16.5302 12.1867C16.5695 12.2378 16.6427 12.2475 16.6938 12.2082C16.7449 12.169 16.7546 12.0958 16.7154 12.0446C16.6761 11.9935 16.6029 11.9839 16.5518 12.0231Z" fill="#2C2C6F"/>
<path d="M13.1147 8.11435L14.3201 9.17833L14.8112 9.81085L14.1786 9.31975L13.1147 8.11435Z" fill="#2C2C6F"/>
<path d="M13.448 7.97689C13.4991 7.93766 13.5087 7.86442 13.4695 7.81331C13.4303 7.76219 13.3571 7.75255 13.3059 7.79177C13.2548 7.831 13.2452 7.90423 13.2844 7.95535C13.3236 8.00647 13.3969 8.01611 13.448 7.97689Z" fill="#2C2C6F"/>
<path d="M16.3345 12.3093L15.4456 10.9696L15.1349 10.2315L15.6188 10.8696L16.3345 12.3093Z" fill="#2C2C6F"/>
<path d="M15.9765 12.3559C15.917 12.3806 15.8887 12.4488 15.9134 12.5084C15.938 12.5679 16.0063 12.5962 16.0658 12.5715C16.1253 12.5468 16.1536 12.4786 16.1289 12.4191C16.1043 12.3595 16.036 12.3313 15.9765 12.3559Z" fill="#2C2C6F"/>
<path d="M13.6664 7.69023L14.5554 9.02994L14.866 9.76802L14.3822 9.12994L13.6664 7.69023Z" fill="#2C2C6F"/>
<path d="M14.0245 7.64407C14.084 7.61941 14.1123 7.55117 14.0876 7.49164C14.063 7.43211 13.9947 7.40384 13.9352 7.4285C13.8756 7.45316 13.8474 7.5214 13.872 7.58093C13.8967 7.64046 13.9649 7.66873 14.0245 7.64407Z" fill="#2C2C6F"/>
<path d="M15.6908 12.5752L15.1788 11.0511L15.0698 10.2577L15.372 10.9993L15.6908 12.5752Z" fill="#2C2C6F"/>
<path d="M15.3336 12.5275C15.2697 12.536 15.2248 12.5946 15.2332 12.6584C15.2416 12.7223 15.3002 12.7673 15.3641 12.7589C15.4279 12.7505 15.4729 12.6919 15.4645 12.628C15.4561 12.5641 15.3975 12.5191 15.3336 12.5275Z" fill="#2C2C6F"/>
<path d="M14.3097 7.42383L14.8216 8.94796L14.9307 9.74129L14.6285 8.99972L14.3097 7.42383Z" fill="#2C2C6F"/>
<path d="M14.6679 7.47148C14.7317 7.46307 14.7767 7.40447 14.7683 7.34058C14.7599 7.2767 14.7013 7.23173 14.6374 7.24014C14.5735 7.24855 14.5285 7.30716 14.537 7.37104C14.5454 7.43492 14.604 7.47989 14.6679 7.47148Z" fill="#2C2C6F"/>
</g>
<defs>
<clipPath id="clip0_4340_150254">
<rect width="30" height="20" rx="4" fill="white"/>
</clipPath>
</defs>
</svg>
